<svg xmlns="http://www.w3.org/2000/svg" xmlns:xlink="http://www.w3.org/1999/xlink" viewBox="0 0 272.96 75.3"><defs><linearGradient id="a" x1="-7272.8" y1="69.36" x2="-7272.8" y2="44.21" gradientTransform="translate(-7211.44 102) rotate(180)" gradientUnits="userSpaceOnUse"><stop offset="0" stop-color="#ffd520"/><stop offset="0.05" stop-color="#f6d324"/><stop offset="0.13" stop-color="#dfce2f"/><stop offset="0.23" stop-color="#b9c742"/><stop offset="0.28" stop-color="#a8c34a"/><stop offset="0.41" stop-color="#8bbe50"/><stop offset="0.54" stop-color="#69b857"/><stop offset="0.63" stop-color="#54b757"/><stop offset="0.76" stop-color="#40b557"/><stop offset="0.88" stop-color="#33b457"/><stop offset="1" stop-color="#2fb457"/></linearGradient></defs><path d="M127.48,36.14c2.71,0,4.19,1.42,4.19,3.26A4,4,0,0,1,128.45,43l2.92,3.66a14,14,0,0,0,3.27,2.83h-1.86a2.65,2.65,0,0,1-2.34-1l-2.47-3-1.86-2.86c1.62-.24,3.5-1,3.5-2.89a2.34,2.34,0,0,0-2.34-2.32l-.27,0a10.81,10.81,0,0,0-1.38.16v9.06c0,.93-.12,2.41.91,2.77v.06h-3.86v-.06c1-.36.89-1.86.89-2.77V39c0-.93.14-2.41-.89-2.79v-.07Z" transform="translate(-7.35 -8.24)" style="fill:#fff"/><path d="M135.39,44.48a3.77,3.77,0,0,0,3.65,3.9h.35a5.28,5.28,0,0,0,3.32-1.07h.06l-1,1.9a7.22,7.22,0,0,1-2.79.5c-3.44,0-5.8-2.16-5.8-5a4.75,4.75,0,0,1,4.62-4.86h.38A4.34,4.34,0,0,1,142.73,44a3.68,3.68,0,0,1,0,.47Zm5.3-1.18a2.34,2.34,0,0,0-2.55-2.09h-.06a2.51,2.51,0,0,0-2.61,2.08Z" transform="translate(-7.35 -8.24)" style="fill:#fff"/><path d="M154,39.89l-.46,1c-.16.36-.2.48-.65.48a14.6,14.6,0,0,1-2.08-.26,2.92,2.92,0,0,1,1.43,2.45c0,2.28-2.46,3-4.3,3.15-.29,0-.83.2-.83.55s.95.38,1.21.38c3.5,0,5.36,1,5.36,3,0,2.29-2.53,3.56-5.68,3.56-3,0-5.6-1.15-5.6-2.87,0-1.13.91-1.64,1.94-1.64a2.43,2.43,0,0,1,1.15.27.84.84,0,0,0-.77.9h0c0,1.7,2,2,3.34,2s3.58-.39,3.58-2.08-2.89-1.88-4.13-1.88h-1.39a1.43,1.43,0,0,1-1.48-1.4v0c0-.59,1.17-.87,1.6-1.07a3.3,3.3,0,0,1-2.67-3.12c0-2.34,2.26-3.43,4.35-3.43Zm-5.9,5.54a2,2,0,0,0,2.1-1.9v-.1a2.35,2.35,0,0,0-2.42-2.26h-.11a1.84,1.84,0,0,0-2,1.61c0,.05,0,.11,0,.17a2.53,2.53,0,0,0,2.5,2.47Z" transform="translate(-7.35 -8.24)" style="fill:#fff"/><path d="M156,40.15a2,2,0,0,0,1.31-.32h.06v7.38c0,.93-.12,1.68.77,2.18v.06H154.8v-.06c.89-.5.77-1.25.77-2.18V42.37c0-.93.12-1.65-.77-2.16v-.06Zm.38-1.21a1.3,1.3,0,0,1-1.31-1.29v0a1.25,1.25,0,0,1,1.31-1.19h0a1.23,1.23,0,0,1,1.21,1.25h0a1.26,1.26,0,0,1-1.17,1.28Z" transform="translate(-7.35 -8.24)" style="fill:#fff"/><path d="M158.64,44.88a5,5,0,0,1,5-5H164a4.86,4.86,0,0,1,5,4.7v.11a5.09,5.09,0,0,1-5.2,5h-.08a4.89,4.89,0,0,1-5.08-4.7Zm8.36.24c0-2-1.06-3.9-3.22-3.9a3.1,3.1,0,0,0-3.1,3.08c0,.08,0,.15,0,.22,0,1.86,1.11,3.86,3.17,3.86A3.11,3.11,0,0,0,167,45.3Z" transform="translate(-7.35 -8.24)" style="fill:#fff"/><path d="M170.56,40.15a2.74,2.74,0,0,0,1.35-.26H172v1.55a3.29,3.29,0,0,1,2.85-1.55,3.77,3.77,0,0,1,3.08,1.39,5.44,5.44,0,0,1,.5,3v2.94c0,.93-.12,1.66.77,2.16v.06h-3.38v-.06c.89-.5.77-1.25.77-2.16V44.5c0-2.17-.6-3.28-2.44-3.28S172,42.45,172,43.65v3.58c0,.93-.12,1.66.77,2.16v.06h-3.38v-.06c.89-.5.77-1.25.77-2.18V42.39c0-.93.12-1.67-.77-2.18v-.06Z" transform="translate(-7.35 -8.24)" style="fill:#fff"/><path d="M183.42,44.88a5.06,5.06,0,0,1,5.36-5,4.85,4.85,0,0,1,5,4.68v.13a5.09,5.09,0,0,1-5.2,5h-.08A4.88,4.88,0,0,1,183.42,45Zm8.35.24c0-2-1.05-3.9-3.22-3.9a3.1,3.1,0,0,0-3.1,3.08c0,.08,0,.15,0,.22,0,1.86,1.11,3.86,3.17,3.86a3.11,3.11,0,0,0,3.14-3.08Z" transform="translate(-7.35 -8.24)" style="fill:#fff"/><path d="M197.43,46.52c0,1-.12,2.35.87,2.87v.06h-3.48v-.06c.89-.5.77-1.25.77-2.16V41.48h-1l1-1.33v-.49a3.24,3.24,0,0,1,.75-2.65,4.54,4.54,0,0,1,3.6-1.29l1.37.12L199.9,37.4a1.79,1.79,0,0,0-1-.34c-1.2,0-1.44.56-1.44,1.75v1.34h2.35l.34-.12h.06v1.78h-.06a.79.79,0,0,0-.75-.33h-1.94Z" transform="translate(-7.35 -8.24)" style="fill:#fff"/><path d="M211.55,50.06c-1.84-1.34-2-1.19-2.69-3.28l-2.39-7.46c-.36-1.11-.67-2.43-1.68-3.11v-.07h3A3.62,3.62,0,0,0,208,37.6l3,9.4,2.37-7.68c.38-1.23.78-2.55-.33-3.11v-.07h2.85a4,4,0,0,0,.31,2L219,46.89l2.28-7.4c.37-1.15,1-2.79-.54-3.33v-.07h3.11L219.59,50c-1.86-1.28-2-1.17-2.66-3.26l-2.23-7Z" transform="translate(-7.35 -8.24)" style="fill:#fff"/><path d="M231,49.71c-1.33-.08-2.67-.48-2.67-2.1V44.42a8.78,8.78,0,0,1-1.94.62c-1,.23-2.06.45-2.06,1.68s1.13,1.66,2.2,1.66A5.55,5.55,0,0,0,228,48.1l-1.2,1.51a6.22,6.22,0,0,1-1,.1,3.17,3.17,0,0,1-3.46-3c0-3.76,6.05-2,6.05-4.23,0-1-1.19-1.29-1.94-1.29a6.31,6.31,0,0,0-2.75.81L225,40l1.32-.12c2.18,0,3.84.62,3.86,3.07v3c0,1.6,0,2.21,1.72,2.39Z" transform="translate(-7.35 -8.24)" style="fill:#fff"/><path d="M234.88,45.53c0,.77-.24,2.85,1.92,2.85a2.3,2.3,0,0,0,.81-.2l-1.07,1.43a2.38,2.38,0,0,1-.65.1c-3.13,0-2.85-3.23-2.85-4V41.48h-1.37v-.72c1.9-.33,2.4-1.74,2.4-3.62h.81v3h1.9a1.69,1.69,0,0,0,.77-.12h.06v1.84h-.06c-.32-.43-.93-.39-1.45-.39h-1.22Z" transform="translate(-7.35 -8.24)" style="fill:#fff"/><path d="M240.08,44.48a3.77,3.77,0,0,0,3.65,3.9h.35a5.28,5.28,0,0,0,3.32-1.07h.06l-1,1.9a7.22,7.22,0,0,1-2.79.5c-3.44,0-5.8-2.16-5.8-5a4.75,4.75,0,0,1,4.64-4.84l.49,0A4.34,4.34,0,0,1,247.55,44a3.68,3.68,0,0,1,0,.47Zm5.3-1.18a2.32,2.32,0,0,0-2.57-2.08h0a2.51,2.51,0,0,0-2.61,2.08Z" transform="translate(-7.35 -8.24)" style="fill:#fff"/><path d="M249.56,40.15a2,2,0,0,0,1.24-.26h.06v1.53a2.69,2.69,0,0,1,2.38-1.53L254,40v1.86a1.19,1.19,0,0,0-.93-.33c-1.54,0-2.18.81-2.18,2.9v2.83c0,.93-.12,1.68.77,2.18v.06h-3.38v-.06c.89-.5.77-1.25.77-2.18V42.37c0-.93.12-1.65-.75-2.16v-.06Z" transform="translate(-7.35 -8.24)" style="fill:#fff"/><path d="M255.85,36.14a1.68,1.68,0,0,0,1.3-.32h.06V47.21c0,.93-.14,1.68.75,2.18v.06h-3.34v-.06c.87-.5.75-1.25.75-2.18V38.39c0-.93.12-1.68-.75-2.18v-.07Z" transform="translate(-7.35 -8.24)" style="fill:#fff"/><path d="M258.48,44.88a5,5,0,0,1,5-5h.37a4.86,4.86,0,0,1,5,4.7v.11a5.09,5.09,0,0,1-5.2,5h-.08a4.89,4.89,0,0,1-5.08-4.7Zm8.35.24c0-2-1.05-3.9-3.21-3.9a3.11,3.11,0,0,0-3.11,3.09c0,.07,0,.14,0,.21,0,1.86,1.12,3.86,3.18,3.86a3.09,3.09,0,0,0,3.13-3.07v-.19Z" transform="translate(-7.35 -8.24)" style="fill:#fff"/><path d="M269.81,44.88a5,5,0,0,1,5-5h.36a4.86,4.86,0,0,1,5,4.7v.11a5.09,5.09,0,0,1-5.2,5h-.08A4.88,4.88,0,0,1,269.81,45Zm8.35.24c0-2-1.05-3.9-3.22-3.9a3.1,3.1,0,0,0-3.1,3.08c0,.08,0,.15,0,.22,0,1.86,1.11,3.86,3.17,3.86a3.11,3.11,0,0,0,3.14-3.08Z" transform="translate(-7.35 -8.24)" style="fill:#fff"/><path d="M123.48,59.29h6l5.85,15.37,5.93-15.37h5.89v22h-3.72V63h-.06L136.7,81.23H134L127.26,63h-.06V81.23h-3.72Z" transform="translate(-7.35 -8.24)" style="fill:#fff"/><path d="M170.53,73.18c0,5.3-3.81,8.61-8.83,8.61s-8.84-3.31-8.84-8.61V59.29h3.91V73.05c0,2.17,1.18,5,4.93,5s4.93-2.85,4.93-5V59.29h3.9Z" transform="translate(-7.35 -8.24)" style="fill:#fff"/><path d="M186.65,64a4.66,4.66,0,0,0-3.85-1.74c-1.8,0-3.59.81-3.59,2.82,0,4.41,10.41,1.89,10.41,9.71,0,4.71-3.72,7-8,7a9.07,9.07,0,0,1-7.19-3l2.94-2.85a5.23,5.23,0,0,0,4.35,2.29c1.79,0,3.84-1,3.84-3,0-4.8-10.42-2-10.42-9.89,0-4.52,4-6.63,8.09-6.63a9,9,0,0,1,6.3,2.26Z" transform="translate(-7.35 -8.24)" style="fill:#fff"/><path d="M194.36,59.29H208.9v3.53H198.27v5.39h10.07v3.54H198.27v6h11.19v3.54h-15.1Z" transform="translate(-7.35 -8.24)" style="fill:#fff"/><path d="M231.85,73.18c0,5.3-3.81,8.61-8.83,8.61s-8.84-3.31-8.84-8.61V59.29h3.91V73.05c0,2.17,1.18,5,4.93,5s4.93-2.85,4.93-5V59.29h3.9Z" transform="translate(-7.35 -8.24)" style="fill:#fff"/><path d="M237.31,59.29h5.95l5.86,15.37L255,59.29h5.9v22h-3.73V63h-.06l-6.66,18.23h-2.73L241.09,63H241V81.23h-3.72Z" transform="translate(-7.35 -8.24)" style="fill:#fff"/><path d="M277.34,64a4.66,4.66,0,0,0-3.85-1.74c-1.8,0-3.6.81-3.6,2.82,0,4.41,10.42,1.89,10.42,9.71,0,4.71-3.72,7-8,7a9.07,9.07,0,0,1-7.19-3L268,76a5.23,5.23,0,0,0,4.35,2.29c1.79,0,3.84-1,3.84-3,0-4.8-10.42-2-10.42-9.89,0-4.52,4-6.63,8.09-6.63a9,9,0,0,1,6.3,2.26Z" transform="translate(-7.35 -8.24)" style="fill:#fff"/><path d="M51,82S38.74,65.42,27.42,53c0,0-13.22-12.79-20.07-18.93h19.4a15.81,15.81,0,0,1,7,1.13c3.63,1.51,6.18,2.88,6.88,3s3.89,1.32,3.9-2.44.06-13,.06-13,3.26,1.72,3.83,1.91S54,26.35,56,22.82c3.07-5.58,2.14-4.16,5.26-14.58,0,0,1.76,8.5,4.26,13.15,1,1.87,2.89,4.18,6.24,3.77a17.67,17.67,0,0,0,6.09-2.42L78,35.26s-.38,3,1.36,3a10,10,0,0,0,4.11-.76c.56-.31,6.39-3.4,10-3.47s21.67,0,21.67,0c-4.48,3.39-17,15.9-21.92,21.08s-17.7,21.4-17.7,21.4l-3.71,5c-1,1.55-3.67,3.38-5.9.53l-4.66-7-4.6,7.2S54.16,85.33,51,82Z" transform="translate(-7.35 -8.24)" style="fill:#fff"/><path d="M61.28,70.8h0c.06.09.11.18.17.26,2.64,4.19,4.72,7.49,5.55,8.82.2.32.41.63.64.93a1.16,1.16,0,0,0,1.53.22,1.79,1.79,0,0,0,.52-.47c.86-1.18,2.28-3.09,4.07-5.45C78.53,68.85,86,59.44,93.05,52c4.74-5,9.72-10.2,13.1-13s4-2.87,4-2.87H97.93c-4.51-.17-8.84,2.77-11.42,5a35.6,35.6,0,0,0-4.36,4.66C77.27,52.05,65,69,65,69c-.38-.64-.79-1.3-1.21-2,2.29-3.49,4.83-7.2,7.31-10.7A168,168,0,0,1,82.44,41.74a30.56,30.56,0,0,1,2.85-2.84s-2.76,1.76-5.21,1.56c-.88-.06-4.54-.12-4.28-5V26.12S64.55,32.07,61.32,16a1.61,1.61,0,0,1,0-.31v.18h0v-.18a1.61,1.61,0,0,1,0,.31c-3.23,16-14.4,10.12-14.4,10.12v9.34c.26,4.85-3.4,4.91-4.28,5-2.46.2-5.22-1.56-5.22-1.56a29.49,29.49,0,0,1,2.86,2.84A169.75,169.75,0,0,1,51.5,56.3c2.48,3.5,5,7.21,7.32,10.7-.43.66-.83,1.32-1.22,2,0,0-12.31-16.91-17.22-23.25A34.8,34.8,0,0,0,36,41.05c-2.58-2.19-6.91-5.13-11.43-5H12.36s.6,0,4,2.87,8.36,8,13.11,13A299,299,0,0,1,48.78,75.1c1.8,2.36,3.21,4.27,4.08,5.45a1.79,1.79,0,0,0,.52.47,1.14,1.14,0,0,0,1.52-.22,9.71,9.71,0,0,0,.65-.93c.83-1.33,2.9-4.63,5.55-8.82.06-.08.11-.17.17-.26h0" transform="translate(-7.35 -8.24)" style="fill:#0067b1"/><path d="M61.32,63.24c6.42-9.44,15-20,15-20a5.4,5.4,0,0,1-3.37-3,14,14,0,0,1-.71-4.85V30.24c-6.34,1.63-9.5-3.68-10.88-6.14-1.38,2.46-4.53,7.77-10.88,6.14v5.15a14,14,0,0,1-.71,4.85,5.4,5.4,0,0,1-3.37,3s8.54,10.56,15,20h-.08Z" transform="translate(-7.35 -8.24)" style="stroke:#006bb6;stroke-width:0.18000000715255737px;fill:url(#a)"/><path d="M70.81,43.07A99,99,0,0,0,63.3,53.63l.39-.83a127.94,127.94,0,0,1,5.47-12.12L68,39a97.28,97.28,0,0,0-5.11,12.48l-.3.76.2-.84C65.38,40.16,66.52,37,66.52,37l-.06-.06L65.1,35,62,48.67s0-4.36.38-17.4c-.27-.42-.88-1.32-1.06-1.64h0c-.18.32-.79,1.22-1.06,1.64.42,13,.38,17.4.38,17.4L57.51,35l-1.36,2h0s1.13,3.17,3.76,14.36l.2.84-.3-.76A97.6,97.6,0,0,0,54.65,39l-1.2,1.73a130.6,130.6,0,0,1,5.48,12.12l.39.83A101.56,101.56,0,0,0,51.8,43.12l-.93,1.33c.58.72,6,7.39,10.42,14h0c4.47-6.59,9.84-13.26,10.42-14Z" transform="translate(-7.35 -8.24)" style="fill:#fff"/></svg>